PathFileType	4	(X/Y/Z)	Patient4_TMGait_0pt4_02_right_25.trc.trc
DataRate	CameraRate	NumFrames	NumMarkers	Units	OrigDataRate	OrigDataStartFrame	OrigNumFrames
70.707070707071	70.707070707071	6	33	mm	70.707070707071	124	       141
Frame#	Time	Sacral			L.Shoulder			Chest			R.Shoulder			Neck			R.ASIS			L.ASIS			R.Thigh.Superior			R.Thigh.Lateral			R.Thigh.Inferior			R.Patella			L.Thigh.Superior			L.Thigh.Lateral			L.Thigh.Inferior			L.Patella			L.Shank.Superior			L.Shank.Lateral			L.Shank.Inferior			R.Shank.Superior			R.Shank.Lateral			R.Shank.Inferior			R.Heel			R.Midfoot.Superior			R.Midfoot.Lateral			R.Toe			L.Heel			L.Midfoot.Lateral			L.Midfoot.Superior			L.Toe			L.Elbow			L.Wrist			R.Elbow			R.Wrist			
		X1	Y1	Z1	X2	Y2	Z2	X3	Y3	Z3	X4	Y4	Z4	X5	Y5	Z5	X6	Y6	Z6	X7	Y7	Z7	X8	Y8	Z8	X9	Y9	Z9	X10	Y10	Z10	X11	Y11	Z11	X12	Y12	Z12	X13	Y13	Z13	X14	Y14	Z14	X15	Y15	Z15	X16	Y16	Z16	X17	Y17	Z17	X18	Y18	Z18	X19	Y19	Z19	X20	Y20	Z20	X21	Y21	Z21	X22	Y22	Z22	X23	Y23	Z23	X24	Y24	Z24	X25	Y25	Z25	X26	Y26	Z26	X27	Y27	Z27	X28	Y28	Z28	X29	Y29	Z29	X30	Y30	Z30	X31	Y31	Z31	X32	Y32	Z32	X33	Y33	Z33	

124	34.629571428571	858.308266240002	996.805967021200	430.792966252280	1055.028741393252	1430.522247833620	267.976274445969	1139.155643732995	1360.502767840746	438.501229674507	1036.150848128061	1431.639304232569	603.059299145420	1019.961770180647	1490.060891654530	423.163863801124	1080.217468075850	939.363911593354	566.437479382859	1083.005270753172	957.772442676287	293.147880477239	1142.471001357597	750.959116023969	546.073640732523	1079.419338505459	633.513076425667	612.062448238525	1168.703365687287	590.620228735485	536.760062454139	1188.965727495454	511.064973965257	549.623020883295	1092.265869811494	730.750985771135	316.598987434551	980.112867823499	633.126430269988	249.393770578391	1042.075485248947	541.016374029687	313.191767765532	1027.920032069840	473.370010328481	321.640119494778	993.530375405641	406.310413104664	312.209499092612	889.985779842897	304.911686304045	259.298600912361	923.273989478218	187.153978852104	330.192940813539	1176.170766127180	422.067088763484	562.424845791256	1121.755998274347	309.343164487853	625.509349760703	1191.443877648075	223.394792758146	575.131397703802	1098.284876088625	42.770311879826	547.521207163103	1262.822232140995	108.440755644067	587.716432240882	1181.075797260672	40.028188745392	622.701682308902	1385.733554684775	66.090104287327	614.949112104977	782.606908946258	38.978535249314	370.798313317785	855.311185020350	34.831182503346	289.332006137461	939.407000432407	95.358017844886	316.270572386017	1067.792162878951	40.760256171171	285.465087749431	1114.676464204704	1102.143888743009	117.102291418538	1366.216422432250	1083.921009762434	164.156565810024	914.489546298823	1100.082792355532	693.622204393908	932.679390307016	838.014357533318	676.269031348063	
125	34.643714285714	860.712340643502	995.463193925588	434.200680287510	1055.072530303902	1429.572269015822	270.561814414252	1140.003122495464	1360.237203069928	441.006418057313	1037.019032698914	1431.110113699521	605.719096406913	1020.214770637070	1489.255750545915	425.725290851169	1083.436351982213	938.450774262534	569.068605258906	1085.177886859249	957.212050469368	295.582669525128	1146.688783559749	750.254388564767	547.903952256103	1082.217386062879	632.171382995791	612.453468155020	1171.987394954655	590.009458891389	537.548504275007	1190.540880507966	508.994329849942	549.306390895513	1093.544645475240	729.584235121053	318.260096758530	980.481076327816	632.500308392582	251.614876679451	1042.459210307784	539.845514228973	314.736023763527	1028.202340217987	471.626462188039	322.884878110144	992.347588303354	405.079704098434	313.534959017525	887.075650137557	305.404219124752	260.607972185743	919.005974302461	186.778051837281	330.691359561332	1176.323982645974	419.242912705686	561.661556157319	1119.372910245810	307.568637451551	624.531417315247	1186.282086832290	220.162023019174	573.300807401704	1087.929676859735	42.578276093270	545.620577094335	1253.739986615259	104.685364073882	585.458131140994	1170.420738736222	38.735683774750	621.113183909203	1375.938262225973	59.861224134678	613.389322514217	776.876975464404	39.392253379062	370.761061246109	849.655009399344	34.987720734309	289.408689381346	933.949373589587	95.378010252772	316.285923354345	1062.180243357113	40.509576162717	285.366902311261	1114.628615988691	1100.934043441619	119.811429654844	1366.339113429368	1082.081841010589	165.857311359383	915.992751262420	1099.610795915309	696.870632458825	934.886690589304	837.530134310671	679.268058112025	
126	34.657857142857	863.097603708824	994.267094844424	437.670365663552	1055.121280496151	1428.804471912137	273.253388150235	1140.850983259722	1360.135415412454	443.615750558959	1037.876313172344	1430.724400885953	608.489142921748	1020.492924898947	1488.632968112470	428.414044903840	1086.680275586757	937.846216867252	571.785477940192	1087.378548165567	956.776090139168	298.000196577264	1151.025826879408	749.869780604364	549.558664510586	1085.608362149887	631.365609375824	613.125333904788	1175.439306812044	589.727234975885	538.248920204654	1192.483560079554	507.254974714713	549.130027247795	1095.171250616492	728.599400993858	320.070670222506	981.414035727630	631.846313124053	253.999138026281	1043.643661916300	538.720550429070	316.413213426073	1029.386133090508	469.774255807906	324.151580111059	991.836637424529	403.804376602149	314.921123302676	884.658934589877	306.099818011432	262.023189940225	915.022811246595	186.531137669455	331.187029829273	1176.867880763715	416.880233690249	561.142315096609	1117.753275397591	306.278097749914	624.197857657716	1181.715023954401	217.417694929970	571.879538283709	1078.258308101079	42.442890077088	544.503892788240	1245.229639000586	101.738020466914	583.671819054595	1160.657215646012	37.791145660522	620.102678759896	1366.902578522356	54.855955419779	611.994026183935	771.173369290562	40.220713197136	370.686006870646	844.030619628473	35.323178831585	289.477643260134	928.647108237805	95.448829390934	316.246086412924	1056.595825758287	40.224707988444	285.255901271050	1113.996383011242	1099.667587693325	122.732479425170	1365.891648865254	1079.046600003034	167.478677086551	918.399380108102	1098.937815081705	700.506181810898	938.588776126328	836.890018412853	683.074543244263	
127	34.672000000000	865.446828939199	993.286014121255	441.180722874299	1055.179536444176	1428.283452546402	276.030653034324	1141.697439021889	1360.232508265490	446.297459013927	1038.741655672320	1430.523518225091	611.343107125622	1020.800960338382	1488.239384003729	431.208634098909	1089.887681614222	937.588958002121	574.583567297328	1089.574743338621	956.498126181842	300.428198701975	1155.233125883043	749.754009800028	551.063555991273	1089.359961791166	631.063448953961	614.142686679264	1178.792255782468	589.692486534663	538.914147944405	1194.555529874761	505.863044340446	549.202067759513	1097.183163720806	727.866165481955	322.051578302205	983.015028188764	631.188120904590	256.516953377385	1045.775685098072	537.687589403733	318.189803886404	1031.613206353033	467.855173198314	325.368138021570	992.133260751359	402.530637052975	316.299474599681	882.847954870098	307.084629639016	263.495057086546	911.422011612659	186.501105783739	331.617744646109	1177.618164591896	415.015435895833	560.948655015019	1116.769564336079	305.437830138106	624.475883667977	1177.789019693065	215.235608113172	570.915553502473	1069.614180526026	42.340909988665	544.047834735153	1237.543424475167	99.672036515873	582.424689365903	1152.066117340424	37.181089525256	619.610905359465	1358.870029450844	51.235968707789	610.888478314282	765.547032442345	41.651014595858	370.558359092096	838.466455699485	35.936950333576	289.524985416892	923.568885541035	95.600526067202	316.114424193964	1051.039615984146	39.907607001411	285.135606313851	1112.786218846601	1098.409934983835	125.886853441607	1364.842293319281	1074.804940883352	169.024307517679	921.715881692491	1098.109604211402	704.462245808336	943.764979138339	836.157874700577	687.626537613128	
128	34.686142857143	867.747423515173	992.566452125875	444.732321670720	1055.236448094482	1428.049563587696	278.872865903730	1142.534837871645	1360.550388419095	449.017765163433	1039.632034592858	1430.536038333846	614.254190824403	1021.131632020284	1488.100870348907	434.085180825234	1093.008673782967	937.686169690548	577.464292092062	1091.738100232432	956.407679601017	302.902903068862	1159.102188104467	749.840015339598	552.486775097000	1093.196561506027	631.178048161009	615.526474554987	1181.814710630852	589.806798463934	539.623682763348	1196.510438819355	504.787263893437	549.592246255678	1099.617751116296	727.445170240249	324.220297846674	985.393751557168	630.545917974473	259.129990500140	1049.005395388746	536.792248517828	320.023703970450	1035.025424670047	465.919554760033	326.460404356442	993.385798123920	401.307312755168	317.598461588661	881.776088164138	308.447970096259	264.972243930102	908.321085431380	186.785717370673	331.924521169381	1178.350540409852	413.616298239058	561.114367279687	1116.169279334066	304.967820401534	625.252845355304	1174.397831563921	213.606122191924	570.396894488436	1062.076095946376	42.260930542314	544.086182473266	1230.721492178874	98.428894980556	581.700574169398	1144.663936036232	36.856674281354	619.534298064764	1351.851743452754	48.943408958305	610.128040070481	760.075426098246	43.890644963703	370.367580401674	833.006200413720	36.954141409147	289.538463956668	918.796627205191	95.874504191038	315.857922137856	1045.511261441453	39.563859045672	285.012018995721	1111.009371872716	1097.217843477411	129.292490605408	1363.139492968005	1069.363604099712	170.506907126824	925.914679200267	1097.190562811968	708.685079040902	950.403742301565	835.425229334488	692.851391612608	
129	34.700285714286	869.986788758936	992.125455113528	448.344999767297	1055.265308830057	1428.110298034211	281.760760548028	1143.351354890140	1361.091833640901	451.743076835370	1040.564477313255	1430.771455857687	617.198400494202	1021.469782870419	1488.217507317408	437.021043820587	1096.008008828919	938.112660308637	580.427512286552	1093.844441506968	956.526367154903	305.457853057387	1162.481250401026	750.043081657915	553.932907628264	1096.808367877143	631.582527653399	617.254667292216	1184.313109041790	589.965034184586	540.471019431185	1198.108695466089	503.961171992916	550.320591838125	1102.509708796792	727.379864062451	326.585936750354	988.658697662082	629.933707474733	261.793781356942	1053.471389251405	536.077229778299	321.872426408206	1039.752891698478	464.024354423327	327.367938727875	995.745039294172	400.181908126386	318.756744777377	881.594327862677	310.274022851665	266.409209343725	905.853955731348	187.486302069090	332.063541308809	1178.830753887525	412.603495671681	561.629254468614	1115.642386500015	304.760290947106	626.372162489023	1171.343415715439	212.457874281568	570.265892977825	1055.529647479786	42.198120378046	544.443006462224	1224.654136933238	97.860258032891	581.420817599214	1138.283080071911	36.749920594959	619.750102808268	1345.699547135388	47.765979753200	609.708028635896	754.865612429261	47.155544508102	370.111233727679	827.712362986553	38.525051054131	289.510791389071	914.423757095049	96.325662483465	315.454862014403	1040.011219073291	39.200292494410	284.893313187925	1108.681362978100	1096.128578706841	132.959690969230	1360.709916349439	1062.743039745219	171.947930853745	930.941879276652	1096.254398953680	713.141769382671	958.503870934068	834.802189227467	698.668670828519	
